<?xml version="1.0" encoding="UTF-8" standalone="no"?>
<svg xmlns:rdf="http://www.w3.org/1999/02/22-rdf-syntax-ns#" xmlns="http://www.w3.org/2000/svg" viewBox="0 0 422.4375 123" height="123" width="422.44" version="1.1" xmlns:cc="http://creativecommons.org/ns#" xmlns:xlink="http://www.w3.org/1999/xlink" xmlns:dc="http://purl.org/dc/elements/1.1/">
<defs>
<linearGradient id="a" y2="590.95" gradientUnits="userSpaceOnUse" y1="472.95" gradientTransform="translate(-818.37 -469.45)" x2="817.55" x1="817.55">
<stop stop-color="#28b914" offset="0"/>
<stop stop-color="#219811" offset="1"/>
</linearGradient>
<filter id="b" style="color-interpolation-filters:sRGB">
<feFlood flood-color="rgb(0,0,0)" flood-opacity=".49804" result="flood"/>
<feComposite operator="in" in="flood" in2="SourceGraphic" result="composite1"/>
<feGaussianBlur in="composite1" stdDeviation="2" result="blur"/>
<feOffset dy="0" dx="0" result="offset"/>
<feComposite operator="over" in="SourceGraphic" in2="offset" result="composite2"/>
</filter>
</defs>
<g transform="translate(3.3229 -1.004)">
<rect stroke-linejoin="round" style="paint-order:stroke fill markers" rx="15" ry="15" height="118" width="118" stroke="#1f8a10" stroke-miterlimit="100" y="3.504" x="-.82293" stroke-width="5" fill="url(#a)"/>
<g aria-label="AJASTA" transform="translate(-3.3229)" fill="#28b914">
<path d="m171 74.504h12l-6-36zm-18 30 18-84h12l18 84h-12l-4.5-21h-15l-4.5 21z"/>
<path d="m201.75 104.5v-9q3.8906 0 6.0469-0.42188 2.2031-0.42188 3.6094-1.7812 1.4062-1.4062 1.875-3.6094 0.46875-2.25 0.46875-6.1875v-63h12v63q0 5.7188-0.75 9.4688-0.75 3.7031-2.7656 6.4219-1.9688 2.7187-5.5312 3.9375-3.5156 1.1719-8.9531 1.1719z"/>
<path d="m250.31 74.504h12l-6-36zm-18 30 18-84h12l18 84h-12l-4.5-21h-15l-4.5 21z"/>
<path d="m308.95 105.35q-11.344 0-17.344-6.6563-5.9531-6.6562-6.6562-18.188l12-3q0.89063 18 12 18 9 0 9-9 0-2.6719-0.75-4.9219-0.7-2.299-2.2-4.174-1.5-1.9219-2.7188-3.0469-1.2188-1.1719-3.3281-2.8594l-15-12q-4.125-3.2344-6.6094-8.2031-2.4375-5.0156-2.4375-11.391 0-9.2812 5.7656-14.766 5.7656-5.4844 15.281-5.4844 10.219 0 16.219 5.0156 6.0469 4.9688 7.4531 14.109 0.14062 0.98438 0.32812 2.7188l-12 3q-0.0469-0.79688-0.23437-2.3906-0.79688-5.7188-3.6094-9.1406-2.7656-3.4688-8.1562-3.4688-4.3125 0-6.6562 2.4375-2.3438 2.3906-2.3438 6.7031 0 7.0781 6 11.859l15 12q12 9.7031 12 23.203 0 9.2344-5.7188 14.437-5.6719 5.2031-15.281 5.2031z"/>
<path d="m347.77 104.5v-73.309h-15v-10.688h42v10.688h-15v73.313z"/>
<path d="m392.44 74.504h12l-6-36zm-18 30 18-84h12l18 84h-12l-4.5-21h-15l-4.5 21z"/>
</g>
<path d="m39.802 20.504-18 84h12l4.5-21h15l4.5 21h18.75c3.625 0 6.6094-0.39062 8.9531-1.1719 2.375-0.8125 4.2188-2.125 5.5312-3.9375 1.3438-1.8125 2.2656-3.9531 2.7656-6.4219 0.5-2.5 0.75-5.6562 0.75-9.4688v-63h-12v63c0 2.625-0.15625 4.6875-0.46875 6.1875-0.3125 1.4688-0.9375 2.6719-1.875 3.6094-0.9375 0.90625-2.1406 1.5-3.6094 1.7812-1.4375 0.28125-3.4531 0.42188-6.0469 0.42188h-2.6777l-16.072-75zm6 18 6 36h-12z" filter="url(#b)" fill="#fff"/>
</g>
</svg>
