<?xml version="1.0" encoding="UTF-8" standalone="no"?>
<!-- Created with Inkscape (http://www.inkscape.org/) -->

<svg xmlns:dc="http://purl.org/dc/elements/1.1/" xmlns:cc="http://creativecommons.org/ns#" xmlns:rdf="http://www.w3.org/1999/02/22-rdf-syntax-ns#" xmlns:svg="http://www.w3.org/2000/svg" xmlns="http://www.w3.org/2000/svg" xmlns:xlink="http://www.w3.org/1999/xlink" xmlns:sodipodi="http://sodipodi.sourceforge.net/DTD/sodipodi-0.dtd" xmlns:inkscape="http://www.inkscape.org/namespaces/inkscape" width="422.4375" height="123" viewBox="0 0 422.4375 123" version="1.1" id="svg8" inkscape:version="0.91+devel r" sodipodi:docname="ajasta-logo.svg">
    <defs id="defs2">
        <filter style="color-interpolation-filters:sRGB" inkscape:label="Drop Shadow" id="filter4335">
            <feFlood flood-opacity="0.498039" flood-color="rgb(0,0,0)" result="flood" id="feFlood4325" />
            <feComposite in="flood" in2="SourceGraphic" operator="in" result="composite1" id="feComposite4327" />
            <feGaussianBlur in="composite1" stdDeviation="2" result="blur" id="feGaussianBlur4329" />
            <feOffset dx="0" dy="0" result="offset" id="feOffset4331" />
            <feComposite in="SourceGraphic" in2="offset" operator="over" result="composite2" id="feComposite4333" />
        </filter>
        <linearGradient gradientTransform="translate(-818.37383,-469.44641)" inkscape:collect="always" xlink:href="#linearGradient4273" id="linearGradient4275" x1="817.5509" y1="472.95038" x2="817.5509" y2="590.95038" gradientUnits="userSpaceOnUse" />
        <linearGradient inkscape:collect="always" id="linearGradient4273">
            <stop style="stop-color:#28b914;stop-opacity:1" offset="0" id="stop4269" />
            <stop style="stop-color:#219811;stop-opacity:1" offset="1" id="stop4271" />
        </linearGradient>
        <filter style="color-interpolation-filters:sRGB" inkscape:label="Drop Shadow" id="filter4335-3">
            <feFlood flood-opacity="0.498039" flood-color="rgb(0,0,0)" result="flood" id="feFlood4325-8" />
            <feComposite in="flood" in2="SourceGraphic" operator="in" result="composite1" id="feComposite4327-4" />
            <feGaussianBlur in="composite1" stdDeviation="2" result="blur" id="feGaussianBlur4329-0" />
            <feOffset dx="0" dy="0" result="offset" id="feOffset4331-5" />
            <feComposite in="SourceGraphic" in2="offset" operator="over" result="composite2" id="feComposite4333-6" />
        </filter>
    </defs>
    <sodipodi:namedview id="base" pagecolor="#ffffff" bordercolor="#666666" borderopacity="1.0" inkscape:pageopacity="0.0" inkscape:pageshadow="2" inkscape:zoom="0.98994949" inkscape:cx="-213.85941" inkscape:cy="-105.02793" inkscape:document-units="px" inkscape:current-layer="layer2" showgrid="false" fit-margin-top="0" fit-margin-left="0" fit-margin-right="0" fit-margin-bottom="0" showguides="false" inkscape:guide-bbox="true" inkscape:locked="false" inkscape:snap-bbox="true">
        <sodipodi:guide position="123,2.4999971" orientation="1,0" id="guide4337" inkscape:locked="false" inkscape:label="" inkscape:color="rgb(0,0,255)" />
        <sodipodi:guide position="153,-11.364216" orientation="1,0" id="guide4339" inkscape:locked="false" inkscape:label="" inkscape:color="rgb(0,0,255)" />
    </sodipodi:namedview>
    <metadata id="metadata5">
        <rdf:RDF>
            <cc:Work rdf:about="">
                <dc:format>image/svg+xml</dc:format>
                <dc:type rdf:resource="http://purl.org/dc/dcmitype/StillImage" />
                <dc:title></dc:title>
            </cc:Work>
        </rdf:RDF>
    </metadata>
    <g inkscape:groupmode="layer" id="layer2" inkscape:label="Logo" transform="translate(3.3229316,-1.0039721)">
        <rect style="opacity:1;fill:url(#linearGradient4275);fill-opacity:1;stroke:#1f8a10;stroke-width:5;stroke-linecap:butt;stroke-linejoin:round;stroke-miterlimit:100;stroke-dasharray:none;stroke-dashoffset:0;stroke-opacity:1;paint-order:stroke fill markers" id="rect4267" width="118" height="118" x="-0.82293159" y="3.5039721" ry="15" rx="15" />
        <g aria-label="AJASTA" style="font-style:normal;font-weight:normal;font-size:22.5px;line-height:25px;font-family:'Comic Book';-inkscape-font-specification:'Comic Book';letter-spacing:0px;word-spacing:0px;fill:#28b914;fill-opacity:1;stroke:none;stroke-width:1px;stroke-linecap:butt;stroke-linejoin:miter;stroke-opacity:1" id="text4238" transform="translate(-3.3229316)">
            <path d="m 171,74.503967 h 12 l -6,-36 z m -18,30.000003 18,-84.000003 h 12 l 18,84.000003 h -12 l -4.5,-21.000003 h -15 L 165,104.50397 Z" style="font-style:normal;font-variant:normal;font-weight:normal;font-stretch:normal;font-size:96px;font-family:Oswald;-inkscape-font-specification:Oswald;fill:#28b914;fill-opacity:1" id="path4433" inkscape:connector-curvature="0" />
            <path d="m 201.75,104.50397 v -9.000003 q 3.89062,0 6.04687,-0.421875 2.20313,-0.421875 3.60938,-1.78125 1.40625,-1.40625 1.875,-3.609375 0.46875,-2.25 0.46875,-6.1875 v -63 h 12 v 63 q 0,5.71875 -0.75,9.46875 -0.75,3.703125 -2.76563,6.421875 -1.96875,2.718748 -5.53125,3.937498 -3.51562,1.17188 -8.95312,1.17188 z" style="font-style:normal;font-variant:normal;font-weight:normal;font-stretch:normal;font-size:96px;font-family:Oswald;-inkscape-font-specification:Oswald;fill:#28b914;fill-opacity:1" id="path4435" inkscape:connector-curvature="0" />
            <path d="m 250.3125,74.503967 h 12 l -6,-36 z m -18,30.000003 18,-84.000003 h 12 l 18,84.000003 h -12 l -4.5,-21.000003 h -15 l -4.5,21.000003 z" style="font-style:normal;font-variant:normal;font-weight:normal;font-stretch:normal;font-size:96px;font-family:Oswald;-inkscape-font-specification:Oswald;fill:#28b914;fill-opacity:1" id="path4437" inkscape:connector-curvature="0" />
            <path d="m 308.95312,105.34772 q -11.34375,0 -17.34375,-6.656253 -5.95312,-6.65625 -6.65625,-18.1875 l 12,-3 q 0.89063,18 12,18 9,0 9,-9 0,-2.671875 -0.75,-4.921875 Q 316.5,79.285217 315,77.410217 q -1.5,-1.921875 -2.71875,-3.046875 -1.21875,-1.171875 -3.32813,-2.859375 l -15,-12 q -4.125,-3.234375 -6.60937,-8.203125 -2.4375,-5.015625 -2.4375,-11.390625 0,-9.28125 5.76562,-14.765625 5.76563,-5.484375 15.28125,-5.484375 10.21875,0 16.21875,5.015625 6.04688,4.96875 7.45313,14.109375 0.14062,0.984375 0.32812,2.71875 l -12,3 q -0.0469,-0.796875 -0.23437,-2.390625 -0.79688,-5.71875 -3.60938,-9.140625 -2.76562,-3.46875 -8.15625,-3.46875 -4.3125,0 -6.65625,2.4375 -2.34375,2.390625 -2.34375,6.703125 0,7.078125 6,11.859375 l 15,12 q 12,9.703125 12,23.203125 0,9.234375 -5.71875,14.437498 -5.67187,5.20313 -15.28125,5.20313 z" style="font-style:normal;font-variant:normal;font-weight:normal;font-stretch:normal;font-size:96px;font-family:Oswald;-inkscape-font-specification:Oswald;fill:#28b914;fill-opacity:1" id="path4439" inkscape:connector-curvature="0" />
            <path d="M 347.76562,104.50397 V 31.191467 h -15 v -10.6875 h 42 v 10.6875 h -15 v 73.312503 z" style="font-style:normal;font-variant:normal;font-weight:normal;font-stretch:normal;font-size:96px;font-family:Oswald;-inkscape-font-specification:Oswald;fill:#28b914;fill-opacity:1" id="path4441" inkscape:connector-curvature="0" />
            <path d="m 392.4375,74.503967 h 12 l -6,-36 z m -18,30.000003 18,-84.000003 h 12 l 18,84.000003 h -12 l -4.5,-21.000003 h -15 l -4.5,21.000003 z" style="font-style:normal;font-variant:normal;font-weight:normal;font-stretch:normal;font-size:96px;font-family:Oswald;-inkscape-font-specification:Oswald;fill:#28b914;fill-opacity:1" id="path4443" inkscape:connector-curvature="0" />
        </g>
        <path style="font-style:normal;font-variant:normal;font-weight:normal;font-stretch:normal;font-size:96px;line-height:25px;font-family:Oswald;-inkscape-font-specification:Oswald;letter-spacing:0px;word-spacing:0px;fill:#ffffff;fill-opacity:1;stroke:none;stroke-width:1px;stroke-linecap:butt;stroke-linejoin:miter;stroke-opacity:1;filter:url(#filter4335-3)" d="m 39.802067,20.503974 -18,83.999996 h 12 l 4.5,-20.999996 h 15 l 4.5,20.999996 h 18.75 c 3.625,0 6.609375,-0.39062 8.953125,-1.17187 2.375,-0.8125 4.21875,-2.125 5.53125,-3.937501 1.34375,-1.8125 2.265625,-3.953125 2.765625,-6.421875 0.5,-2.5 0.75,-5.65625 0.75,-9.46875 v -63 h -12 v 63 c 0,2.625 -0.15625,4.6875 -0.46875,6.1875 -0.3125,1.46875 -0.9375,2.671875 -1.875,3.609375 -0.9375,0.90625 -2.14063,1.5 -3.60937,1.78125 -1.4375,0.28125 -3.45313,0.421875 -6.04688,0.421875 h -2.67773 l -16.07227,-75 z m 6,18 6,36 h -12 z" id="path4244" inkscape:connector-curvature="0" sodipodi:nodetypes="ccccccccccsccscccsccccccc" />
    </g>
</svg>
